<svg data-name="レイヤー 2" xmlns="http://www.w3.org/2000/svg" viewBox="0 0 48 48.13"><path d="M14.06.17C11.51.29 9.76.7 8.24 1.3c-1.58.62-2.92 1.44-4.25 2.78-1.33 1.34-2.15 2.68-2.76 4.27-.59 1.53-.99 3.28-1.1 5.84C.02 16.76 0 17.57 0 24.11c.01 6.53.04 7.35.16 9.92.12 2.56.53 4.31 1.13 5.84.62 1.58 1.44 2.92 2.78 4.26 1.34 1.33 2.68 2.15 4.26 2.77 1.53.59 3.27.99 5.83 1.11 2.56.11 3.38.14 9.89.13 6.52-.01 7.34-.04 9.9-.16 2.55-.12 4.3-.53 5.82-1.13 1.58-.62 2.92-1.44 4.25-2.78 1.33-1.34 2.15-2.68 2.76-4.27.59-1.53.99-3.28 1.1-5.84.11-2.57.14-3.39.13-9.92-.01-6.53-.04-7.35-.16-9.92-.12-2.56-.53-4.31-1.13-5.84-.62-1.58-1.44-2.92-2.78-4.26-1.34-1.33-2.68-2.16-4.26-2.77-1.53-.59-3.27-1-5.83-1.11C31.29.02 30.47 0 23.95 0c-6.52.01-7.33.04-9.89.16m.28 43.5c-2.34-.1-3.61-.49-4.46-.82-1.12-.44-1.92-.96-2.76-1.79-.84-.84-1.36-1.64-1.8-2.76-.33-.85-.72-2.12-.83-4.47-.12-2.54-.15-3.3-.16-9.72-.01-6.42.01-7.18.12-9.72.1-2.34.49-3.62.82-4.47.43-1.13.95-1.93 1.79-2.77.84-.84 1.64-1.37 2.76-1.8.85-.33 2.12-.73 4.45-.84 2.53-.12 3.29-.15 9.7-.16 6.41-.01 7.17.01 9.7.12 2.34.1 3.61.49 4.46.82 1.12.44 1.92.95 2.76 1.79.84.84 1.36 1.64 1.8 2.76.33.85.72 2.12.83 4.46.12 2.54.15 3.3.16 9.72.01 6.43-.01 7.19-.12 9.72-.1 2.35-.49 3.62-.82 4.47-.43 1.12-.95 1.93-1.79 2.77-.84.84-1.64 1.37-2.76 1.8-.84.33-2.12.73-4.45.84-2.53.12-3.29.15-9.7.16-6.41.01-7.16-.01-9.7-.12M33.91 11.2c0 1.59 1.3 2.88 2.88 2.88 1.59 0 2.88-1.3 2.87-2.89 0-1.59-1.3-2.88-2.89-2.88s-2.88 1.3-2.87 2.89M11.67 24.09c.01 6.82 5.54 12.34 12.35 12.33 6.81-.01 12.31-5.55 12.3-12.38-.01-6.82-5.54-12.34-12.35-12.33-6.8.01-12.31 5.56-12.3 12.38m4.32 0c0-4.43 3.57-8.03 7.98-8.04 4.42 0 8.01 3.57 8.02 8 0 4.43-3.57 8.03-7.99 8.04-4.42 0-8.01-3.58-8.01-8.01" style="fill:#f59b00" data-name="コンタクト(pc)"/></svg>