<svg data-name="レイヤー 1" xmlns="http://www.w3.org/2000/svg" xmlns:xlink="http://www.w3.org/1999/xlink" viewBox="0 0 289 420"><defs><radialGradient id="k" data-name="夏" cx="58.26" cy="402.57" fx="58.26" fy="402.57" r="11.05" xlink:href="#a"/><radialGradient id="a" data-name="夏" cx="194.04" cy="221.94" fx="194.04" fy="221.94" r="64.81" gradientUnits="userSpaceOnUse"><stop offset="0" stop-color="#fff"/><stop offset=".09" stop-color="#ffecd8"/><stop offset=".21" stop-color="#ffd4a7"/><stop offset=".33" stop-color="#ffc07d"/><stop offset=".46" stop-color="#ffb05a"/><stop offset=".59" stop-color="#ffa340"/><stop offset=".72" stop-color="#ff9a2d"/><stop offset=".86" stop-color="#ff9421"/><stop offset="1" stop-color="#ff931e"/></radialGradient><radialGradient id="c" data-name="夏" cx="3835.53" cy="-742.19" fx="3835.53" fy="-742.19" r="64.81" gradientTransform="rotate(-144 2118.728 263.576)" xlink:href="#a"/><radialGradient id="d" data-name="夏" cx="3708.08" cy="1579.88" fx="3708.08" fy="1579.88" r="64.81" gradientTransform="rotate(144 2118.396 261.773)" xlink:href="#a"/><radialGradient id="e" data-name="夏" cx="1474.37" cy="2181.52" fx="1474.37" fy="2181.52" r="64.81" gradientTransform="rotate(72.45 2118.365 259.103)" xlink:href="#a"/><radialGradient id="f" data-name="夏" cx="140.51" cy="153.05" fx="140.51" fy="153.05" r="37.22" xlink:href="#a"/><radialGradient id="g" data-name="夏" cx="69.27" cy="343.33" fx="69.27" fy="343.33" r="33.21" xlink:href="#a"/><radialGradient id="h" data-name="夏" cx="149.98" cy="344.27" fx="149.98" fy="344.27" r="33.36" xlink:href="#a"/><radialGradient id="i" data-name="夏" cx="226.9" cy="342.05" fx="226.9" fy="342.05" r="29.51" xlink:href="#a"/><radialGradient id="j" data-name="夏" cx="30.62" cy="402.57" fx="30.62" fy="402.57" r="12.47" xlink:href="#a"/><radialGradient id="b" data-name="夏" cx="1671.91" cy="-1583.1" fx="1671.91" fy="-1583.1" r="64.81" gradientTransform="rotate(-72 2119.26 266.496)" xlink:href="#a"/><radialGradient id="l" data-name="夏" cx="80.71" cy="402.57" fx="80.71" fy="402.57" r="10.33" xlink:href="#a"/><radialGradient id="m" data-name="夏" cx="96.8" cy="402.57" fx="96.8" fy="402.57" r="8.5" xlink:href="#a"/><radialGradient id="n" data-name="夏" cx="114.16" cy="402.66" fx="114.16" fy="402.66" r="11.39" xlink:href="#a"/><radialGradient id="o" data-name="夏" cx="136.23" cy="402.57" fx="136.23" fy="402.57" r="10.25" xlink:href="#a"/><radialGradient id="p" data-name="夏" cx="164.33" cy="402.57" fx="164.33" fy="402.57" r="9.79" xlink:href="#a"/><radialGradient id="q" data-name="夏" cx="185.9" cy="402.57" fx="185.9" fy="402.57" r="11.05" xlink:href="#a"/><radialGradient id="r" data-name="夏" cx="213.9" cy="402.67" fx="213.9" fy="402.67" r="13.76" xlink:href="#a"/><radialGradient id="s" data-name="夏" cx="240.54" cy="402.57" fx="240.54" fy="402.57" r="10.25" xlink:href="#a"/><radialGradient id="t" data-name="夏" cx="262.75" cy="402.57" fx="262.75" fy="402.57" r="10.72" xlink:href="#a"/></defs><path d="M246.01 206.95c-.99-4.85-2.45-9.52-4.34-13.97a74.46 74.46 0 0 0-6.86-12.64 75.109 75.109 0 0 0-9.09-11.02 75.109 75.109 0 0 0-11.02-9.09 73.765 73.765 0 0 0-12.64-6.86 74.05 74.05 0 0 0-13.97-4.34c-4.85-.99-9.86-1.51-15-1.51s-10.16.52-15 1.51a73.328 73.328 0 0 0-17.52 5.96c3.04-.04 6.1.09 9.18.44 4.91.55 9.85 1.61 14.73 3.2a74.78 74.78 0 0 1 13.8 6.07c4.3 2.44 8.29 5.27 11.95 8.44 3.65 3.17 6.96 6.66 9.9 10.43a74.842 74.842 0 0 1 12.91 25.33c1.32 4.59 2.2 9.33 2.62 14.14.42 4.82.36 9.71-.19 14.63-.55 4.91-1.61 9.85-3.2 14.73a74.78 74.78 0 0 1-6.07 13.8c-2.44 4.3-5.27 8.29-8.44 11.95a74.451 74.451 0 0 1-10.43 9.9c-3.77 2.94-7.8 5.51-12.05 7.67-.46.23-.93.44-1.39.67 4.87-.05 9.62-.55 14.22-1.49 4.85-.99 9.52-2.45 13.97-4.34a74.46 74.46 0 0 0 12.64-6.86c3.96-2.68 7.65-5.72 11.02-9.09 3.37-3.37 6.41-7.06 9.09-11.02 2.68-3.96 4.98-8.19 6.86-12.64a74.05 74.05 0 0 0 4.34-13.97c.99-4.85 1.51-9.86 1.51-15s-.52-10.16-1.51-15Z" style="fill:url(#a)"/><path d="M223.75 66.33c-4.92-.55-9.81-.61-14.63-.19s-9.55 1.3-14.15 2.62A75.242 75.242 0 0 0 181.68 74c-4.24 2.16-8.28 4.73-12.05 7.67a73.906 73.906 0 0 0-18.87 21.85c-2.44 4.3-4.49 8.91-6.07 13.8a75.052 75.052 0 0 0-3.2 14.74 73.849 73.849 0 0 0 .25 18.51c.91-2.91 1.97-5.78 3.25-8.59 2.05-4.5 4.57-8.87 7.59-13.02 3.02-4.16 6.39-7.91 10.04-11.25 3.65-3.34 7.58-6.26 11.72-8.75 4.14-2.49 8.49-4.56 12.98-6.19 4.49-1.63 9.12-2.82 13.83-3.57 4.7-.74 9.48-1.04 14.25-.88 4.78.16 9.55.79 14.26 1.88a73.91 73.91 0 0 1 13.85 4.7c4.5 2.05 8.87 4.57 13.02 7.59 4.16 3.02 7.91 6.39 11.25 10.04 3.34 3.65 6.26 7.58 8.75 11.72 2.49 4.14 4.56 8.49 6.19 12.98 1.63 4.49 2.82 9.12 3.57 13.83.08.51.14 1.02.21 1.53 1.46-4.64 2.45-9.32 2.98-13.99.55-4.92.61-9.81.19-14.63s-1.3-9.55-2.62-14.15a75.242 75.242 0 0 0-5.24-13.29 74.876 74.876 0 0 0-7.67-12.05 73.412 73.412 0 0 0-9.91-10.43c-3.65-3.17-7.65-6-11.95-8.44-4.3-2.44-8.91-4.49-13.8-6.07a75.052 75.052 0 0 0-14.74-3.2Z" style="fill:url(#b)"/><path d="M87.77 49.73c-2.05 4.5-3.61 9.14-4.7 13.85a74.336 74.336 0 0 0-1.88 14.26c-.16 4.78.13 9.55.88 14.26.75 4.7 1.94 9.34 3.57 13.83s3.7 8.84 6.2 12.98c2.5 4.14 5.42 8.07 8.76 11.72 3.34 3.65 7.09 7.02 11.25 10.04s8.52 5.55 13.03 7.59a73.196 73.196 0 0 0 17.68 5.48c-2.48-1.76-4.89-3.66-7.17-5.75a75.187 75.187 0 0 1-10.04-11.24 74.563 74.563 0 0 1-7.59-13.02c-2.05-4.5-3.61-9.14-4.7-13.85a74.232 74.232 0 0 1-1.88-14.26c-.16-4.78.13-9.55.88-14.25.74-4.7 1.94-9.33 3.57-13.83a73.977 73.977 0 0 1 14.94-24.7c3.34-3.65 7.09-7.02 11.24-10.04 4.16-3.02 8.52-5.55 13.02-7.59 4.5-2.05 9.14-3.61 13.85-4.7 4.71-1.09 9.48-1.72 14.26-1.88 4.78-.16 9.55.13 14.25.88.51.08 1.01.19 1.52.28a74.54 74.54 0 0 0-12.39-7.15c-4.5-2.05-9.14-3.61-13.85-4.7a74.336 74.336 0 0 0-14.26-1.88c-4.78-.16-9.55.13-14.26.88-4.7.75-9.34 1.94-13.83 3.57s-8.84 3.7-12.99 6.2c-4.14 2.5-8.07 5.42-11.72 8.76a74.776 74.776 0 0 0-10.04 11.25 74.28 74.28 0 0 0-7.59 13.03Z" style="fill:url(#c)"/><path d="M24.32 172.47c3.65 3.34 7.58 6.26 11.72 8.76 4.14 2.5 8.49 4.56 12.98 6.2 4.49 1.63 9.13 2.83 13.83 3.57a75.5 75.5 0 0 0 14.26.88c4.78-.16 9.55-.79 14.26-1.88a73.91 73.91 0 0 0 13.85-4.7 75.28 75.28 0 0 0 13.03-7.59c4.16-3.02 7.91-6.39 11.25-10.04 3.34-3.65 6.26-7.58 8.76-11.72.67-1.12 1.31-2.25 1.92-3.4a74.165 74.165 0 0 1-7.68 5.04c-4.3 2.44-8.91 4.49-13.8 6.07a75.113 75.113 0 0 1-14.73 3.2c-4.91.55-9.81.61-14.63.19a74.549 74.549 0 0 1-27.42-7.86 74.876 74.876 0 0 1-12.05-7.67 73.906 73.906 0 0 1-10.43-9.9c-3.17-3.65-6-7.64-8.44-11.95-2.44-4.3-4.49-8.91-6.07-13.8a75.113 75.113 0 0 1-3.2-14.73 73.84 73.84 0 0 1-.19-14.63c.41-4.82 1.3-9.55 2.62-14.14s3.08-9.04 5.24-13.28c.23-.46.49-.91.73-1.36-3.91 2.9-7.46 6.1-10.63 9.57a74.042 74.042 0 0 0-8.76 11.72c-2.5 4.14-4.56 8.49-6.2 12.98a75.35 75.35 0 0 0-3.57 13.83 74.68 74.68 0 0 0-.88 14.26c.16 4.78.79 9.55 1.88 14.26a73.91 73.91 0 0 0 4.7 13.85 75.28 75.28 0 0 0 7.59 13.03c3.02 4.16 6.39 7.91 10.04 11.25Z" style="fill:url(#d)"/><path d="M121.21 269.81c4.32-2.41 8.34-5.21 12.01-8.35 3.68-3.14 7.02-6.61 9.99-10.36a74.43 74.43 0 0 0 7.76-11.99c2.2-4.23 3.99-8.66 5.34-13.25 1.36-4.58 2.28-9.31 2.73-14.13.45-4.81.44-9.71-.08-14.63s-1.53-9.86-3.08-14.76-3.56-9.53-5.97-13.85a73.674 73.674 0 0 0-8.35-12.01 72.11 72.11 0 0 0-2.62-2.9c.95 2.89 1.75 5.85 2.35 8.88a74.99 74.99 0 0 1 1.39 15.01 74.73 74.73 0 0 1-1.63 14.99c-1.03 4.84-2.53 9.5-4.45 13.93a74.088 74.088 0 0 1-6.96 12.59c-2.71 3.94-5.78 7.6-9.17 10.94-3.39 3.34-7.1 6.36-11.08 9a74.84 74.84 0 0 1-12.69 6.76 74.302 74.302 0 0 1-14 4.23 74.99 74.99 0 0 1-15.01 1.39 74.73 74.73 0 0 1-14.99-1.63c-4.84-1.03-9.5-2.53-13.93-4.45a74.088 74.088 0 0 1-12.59-6.96c-3.94-2.71-7.6-5.78-10.94-9.17-.36-.37-.7-.75-1.06-1.13 1.52 4.62 3.43 9.01 5.71 13.11 2.41 4.32 5.21 8.34 8.35 12.01 3.14 3.68 6.61 7.02 10.36 9.99a74.43 74.43 0 0 0 11.99 7.76c4.23 2.2 8.66 3.99 13.25 5.34 4.58 1.36 9.31 2.28 14.13 2.73 4.81.45 9.71.44 14.63-.08s9.86-1.53 14.76-3.08 9.53-3.56 13.85-5.97Z" style="fill:url(#e)"/><circle cx="140.51" cy="153.05" r="37.22" style="fill:url(#f)"/><path d="M73.25 353.39c0-.86-.31-1.02-1.02-.63-1.33.47-2.35 1.33-3.22 2.43-.47.55-1.02.63-1.57.31-.78-.71-1.57-1.41-2.35-2.12a69.76 69.76 0 0 1-2.2-2.83c-2.12-2.35-3.45-5.1-4.16-8.16-.16-1.02-.24-2.04-.16-2.98 0-.16-.08-.31-.16-.39-.08.08-.24.24-.31.39-.63 1.18-1.33 2.35-2.04 3.53-1.8 2.75-3.69 5.49-5.57 8.32-.31.47-.71.94-1.1 1.41-.39.47-.63.94-.63 1.57-.08.39-.31.78-.55 1.02-.31.24-.55.47-.86.78l-5.96 6.75c-.16.24-.24.55-.39.86-.08.39-.31.71-.63.94-.31.24-.71.47-1.1.55-.39.16-.71.16-1.1-.08-.63-.71-.94-1.57-.86-2.51.47-1.33 1.1-2.59 1.96-3.85 0-.08.08-.16.24-.16 0 .16.08.31.08.39.16.31.31.63.47 1.02.39-.16.71-.39.94-.63 3.53-4.4 6.59-9.03 9.1-13.97 2.35-4.71 4.71-9.42 6.99-14.28 1.81-3.3 3.69-6.59 5.65-9.89.39-.55.24-.86-.47-.86-.16-.08-.24-.16-.39-.16-2.04-1.18-4-2.28-5.89-3.45-.31-.31-.55-.71-.71-1.18.39-.31.86-.47 1.33-.47 1.88.24 3.77.39 5.65.47 1.65 0 3.22-.24 4.79-.63 1.57-.39 3.14-.86 4.71-1.41 3.69-1.18 7.3-2.43 10.83-3.77l1.26-.63c.16-.16.31-.24.55-.16.86.47 1.73.86 2.67 1.33.55.16.86.55.94 1.1.08.55.16 1.02.16 1.57-.16.16-.31.31-.55.47-2.98 1.26-5.96 2.43-9.1 3.61-3.06 1.1-6.2 2.04-9.34 2.75-.86.31-1.65.86-2.2 1.65-1.41 1.81-2.59 3.77-3.45 5.89-1.33 3.22-2.75 6.36-4.32 9.5-.08.24-.16.55-.31.86 0 .16.16.31.31.31 3.06-1.96 6.04-4.08 8.95-6.36 1.65-1.49 3.06-3.22 4.16-5.18.55-.63.86-1.33.79-2.2-.08-.78-.39-1.49-1.02-2.12-.31-.31-.47-.63-.71-1.02s-.16-.78.16-1.18c.31-.47.78-.71 1.26-.78.55 0 1.02.08 1.49.31 2.43 1.18 4.16 3.06 5.18 5.57.55.86.47 1.73-.08 2.43-.63.71-1.41 1.02-2.43.86-2.28-.16-4.24.63-5.81 2.2-1.41 1.96-3.22 3.53-5.42 4.71-.71.39-1.26.86-1.8 1.49-.79.71-1.49 1.41-2.28 2.04-.55.39-.63.86-.16 1.41.94 1.18 1.88 2.43 2.83 3.77.78 1.18 1.49 2.43 2.12 3.61.63 1.33 1.65 1.8 3.06 1.41 3.45-.94 6.99-1.88 10.52-2.9.94-.39 1.65-.94 2.28-1.73 2.43-2.9 4.39-6.2 5.81-9.73.24-.55.08-.94-.47-1.26-2.12-1.1-4.24-1.33-6.51-.71-1.96.24-3.92.71-5.73 1.33-.86.39-1.57.86-2.28 1.33-.71.55-1.41 1.02-2.12 1.49-.63.31-1.26.63-1.96.78-.31 0-.47-.08-.63-.24.08-.16.16-.31.24-.39 3.45-4 7.77-6.51 13.03-7.53 1.96-.55 3.92-.39 5.73.31 1.81.71 3.45 1.73 4.87 3.14.86.78 1.33 1.8 1.26 3.06v.24c-.63 1.49-1.26 3.06-1.88 4.63-.63 1.65-1.49 3.06-2.51 4.47-.63.78-1.18 1.65-1.73 2.51-.63.71-1.49 1.33-2.35 1.96-.71.31-1.26.24-1.73-.39-.31-.16-.63-.24-1.02-.24-1.65.47-3.22.78-4.79 1.02-.55.16-.71.47-.47.94.16 1.1.24 2.2.24 3.22.24 3.37.47 6.67.71 9.97 0 2.9-.08 5.81-.24 8.71-.24.78-.55 1.49-1.1 2.12-.31.47-.63.86-.94 1.26-1.33 1.65-2.83 1.8-4.47.39-1.41-1.41-2.9-2.75-4.55-3.92-2.04-1.65-4.16-3.3-6.2-4.94-.31-.39-.71-.39-1.02 0-.78.86-1.49 1.65-2.35 2.35-1.88 1.41-3.53 1.1-4.87-.78-.47-.63-.94-1.18-1.49-1.8-.39-.47-.55-1.1-.39-1.73.16-.71.55-1.18 1.18-1.49.24-.16.47-.16.71 0 .79.47 1.57.39 2.28-.24 2.75-1.49 5.42-2.98 8.08-4.4.16-.16.31-.24.55-.31 0 .24 0 .47-.08.71-.71 1.65-1.41 3.22-2.12 4.87-.63.94-.47 1.65.47 2.12 1.49.78 2.9 1.65 4.39 2.59.94.47 1.96.71 2.98.63 1.02-.08 2.04-.31 3.06-.63.71-.47 1.1-1.1 1.1-1.88.16-2.43.16-4.87.16-7.38h.16v-7.14Zm-5.49-9.73c-.86-.39-.86-.78-.08-1.26 2.12-1.18 4.32-2.35 6.51-3.61 1.02-.63 2.04-.63 3.14-.08.55.24.94.55 1.26.94 1.02 1.57.63 2.67-1.18 3.3-.94.47-1.96.86-2.98 1.18-.78.39-1.65.63-2.51.71-1.41-.31-2.83-.71-4.16-1.18Zm28.57 16.32c2.2 1.18 3.69 2.98 4.32 5.42.08.31.24.71.39 1.1.47 1.41.16 2.75-.94 3.85-.63.24-1.18.24-1.81 0-.55-.16-1.1-.47-1.57-.86a46.62 46.62 0 0 0-4.08-3.61c-1.33-1.49-2.83-2.75-4.32-4-1.33-1.02-2.67-1.96-3.92-2.9-.94-.63-1.96-1.18-2.9-1.81-.08 0-.08-.16-.16-.31l.31-.24 2.28-.16c4.39.24 8.55 1.49 12.4 3.53Z" style="fill:url(#g)"/><path d="M142.31 311.01c.16 0 .31 0 .47.16 1.1 1.02 2.04 2.12 2.98 3.3.24.47.39.86.31 1.41.08.94-.31 1.41-1.18 1.49-.55.08-1.18.31-1.73.63l-4.94 2.51c-.55.24-.63.63-.31 1.1.31 1.02.55 1.96.71 2.9.16.16.31.16.55.16 2.04-.39 4-.78 5.89-1.26.71-.08 1.26.08 1.8.39.55.24 1.1.63 1.49 1.1.47.39.78.94.86 1.57-.16.47-.55.71-1.02.79-2.75-.24-5.49.08-8.08.94-1.57.39-2.35 1.41-2.51 3.06-.08 1.1-.16 2.2-.31 3.22.08.24.24.31.55.31l1.49-.63c2.04-.31 3.85-.08 5.57.86 1.8.94 3.06 2.28 3.92 4.08.24.55.31 1.18.08 1.8-.16.63-.55 1.18-.94 1.65-1.49 1.8-3.14 3.61-4.87 5.26-.31.24-.63.39-1.02.63-.31.24-.39.55-.24 1.1-.86.39-1.88.71-2.9 1.02-.31.16-.78.24-1.18.39-.47.08-.78.39-.86.86-.08.55-.08.94-.08 1.33-.08.47-.08 1.02.08 1.49.39-.16.78-.47 1.18-.78 1.1-.86 2.2-1.73 3.38-2.67l.24-.24c.16.16.16.24.16.39-.31.86 0 1.41.86 1.73.86.16 1.41.71 1.73 1.57 0 1.02-.39 1.73-1.26 2.12-1.41.63-2.9 1.26-4.4 1.96-.47.08-.86.24-1.26.55-.39.31-.55.71-.63 1.18-.08.78-.08 1.57 0 2.36.16 1.02.71 1.41 1.65 1.1 3.85-1.8 7.61-3.61 11.38-5.42.08-.16.24-.24.39-.16-.16.08-.24.24-.31.39-1.41 1.41-2.75 2.9-4.16 4.47-.47.39-1.02.78-1.49 1.1-1.18.63-2.28 1.33-3.3 2.12-.39.08-.71.31-1.1.55-2.43 1.18-4.71 2.51-6.98 3.92-1.49 1.02-2.9 2.04-4.24 3.22-1.1.86-2.2 1.88-3.3 2.9-.78.71-1.57.71-2.43 0l-1.41-1.41c-.47-.55-.71-1.18-.71-1.88.08-.39.31-.71.63-.94.71.24 1.41.16 2.04-.16.63-.39 1.18-.78 1.57-1.33 2.04-1.96 3.92-4 5.81-6.04.47-.71.86-1.49 1.18-2.28.16-.24.16-.47.16-.63-.24 0-.47 0-.63.08-1.1.63-2.35 1.18-3.53 1.65-1.88.71-3.22.08-4.08-1.73-.24-.71-.24-1.26.16-1.88.78-.86 1.73-1.8 2.75-2.67.08-.16.24-.24.39-.24-.08.16-.08.31-.08.39-.31.55-.55 1.1-.78 1.73v.55c.16.08.31 0 .47-.16 1.73-.71 3.45-1.57 5.1-2.51.31-.16.39-.39.39-.71 0-1.02 0-2.04-.16-3.06-.16-.16-.31-.31-.63-.31 0-.08-.08-.08-.16 0-1.1.71-2.28.86-3.45.55-1.18-.31-2.2-.86-3.06-1.8-1.81-1.57-3.3-3.3-4.63-5.26-.71-.86-.47-1.65.63-2.2.55-.47 1.02-.94 1.49-1.41 3.45-3.45 6.83-6.98 10.12-10.52.24-.39.39-.71.47-1.1.08-.39.08-.78.16-1.18-.16-.16-.31-.16-.55-.16-.55.24-1.1.63-1.65.94-2.75 1.41-5.49 2.82-8.24 4.24-.78.47-1.41 1.02-2.04 1.65-1.02.94-1.96.94-2.83-.08-.47-.39-.86-.94-1.26-1.57-.16-.31-.16-.63 0-1.1.31-.71.78-1.33 1.33-1.88.31-.24.63-.24.94 0 .63.31 1.18.31 1.8 0 4-2.04 8.08-4 12.24-5.73l.63-.79c.08-1.02.16-2.04.24-3.14-.16-.24-.39-.47-.63-.55-.63-.08-1.18-.08-1.73.16-2.2.63-4.39 1.26-6.51 1.88h-.47c0-.16.08-.24.24-.31 1.33-1.1 2.67-2.2 4-3.37 2.75-2.2 5.49-4.4 8.32-6.59.55-.39.55-.71 0-1.02-.86-.71-.78-1.18.16-1.57.78-.24 1.65-.39 2.59-.39v.16c.78-.08 1.65-.16 2.51-.31Zm-9.5 28.25c.16-.71-.08-.86-.78-.39-2.2 1.26-4 2.98-5.49 5.02-.39.47-.78.86-1.26 1.18.16-.55.39-1.18.55-1.73.31-.47.55-.78.78-1.18 1.41-1.41 2.9-2.75 4.47-3.92 1.49-.78 2.12-1.96 1.88-3.53-.08-.31-.08-.55-.16-.78-.16.16-.39.24-.55.39-1.26 1.33-2.51 2.59-3.69 3.92-1.73 2.28-3.45 4.63-5.34 6.91-.78.71-.78 1.33.16 1.73l.47.47c.16 0 .39 0 .55-.16.24-.39.39-.39.55.16v.78c1.1.94 2.28 1.96 3.37 2.9l2.04-2.28q.08 0 .16-.08s.08-.08.24-.16v.47c-.39.63-.71 1.18-1.02 1.8-.08.16-.08.31-.08.47h.47c.47-.08.94-.31 1.41-.55.39-.31.71-.71.78-1.26.16-.55.16-1.02.08-1.49.08-.08.16-.24.16-.47.16-.63-.16-.78-.78-.63-1.18.39-2.28.16-3.3-.55-.39-.39-.39-.71.08-1.02.86-.63 1.73-1.18 2.75-1.65 1.26-.39 1.73-1.33 1.49-2.67v-1.73Zm5.81-2.12c-1.33.08-1.88.78-1.73 2.12v.78c0 .55.24.86.78 1.02.78.47 1.57 1.02 2.28 1.73.47.39.39.71-.24.86-.78.24-1.49.63-2.04 1.18-.63.47-.86 1.18-.63 2.04v.86c.16-.08.39-.24.63-.39 2.83-2.04 4.87-4.79 6.12-8.24.39-.86.16-1.49-.78-1.96-.71-.24-1.41-.47-2.04-.63-.78.31-1.57.55-2.35.63Zm43.79 6.36c-.63 4.32-1.33 8.63-2.2 13.03-.86 4.4-2.12 8.55-3.77 12.64-1.49 3.38-3.92 5.81-7.22 7.3-1.73.94-3.3.71-4.79-.63-.24-.39-.63-.71-.94-1.1-2.9-3.61-5.73-7.22-8.63-10.83-.24-.39-.47-.39-.71 0-2.04 2.04-4.16 4.08-6.2 6.12-.47.31-1.02.55-1.49.78.31-.39.55-.78.86-1.18 3.85-4.87 6.51-10.2 8.16-16.09 1.41-4.79 2.82-9.65 4.24-14.44.08-.31.16-.63.16-.86-.24.08-.47.16-.71.39-2.51 1.41-5.02 2.83-7.53 4.16-.55.16-1.26.31-1.96.31.31-.55.71-1.02 1.26-1.41 3.22-2.9 6.59-5.73 9.97-8.55.31-.39.55-.94.71-1.49.71-5.18 1.26-10.44 1.81-15.7 0-.39-.16-.78-.55-1.1-.24-.24-.63-.47-1.02-.63-.79-.63-.71-1.18.24-1.73.71-.24 1.41-.39 2.12-.31 1.26.39 2.43 1.02 3.45 1.96s1.65 2.12 1.73 3.45c0 1.33-.08 2.67-.24 4-.24 1.65-.39 3.3-.55 5.02-.16.63.08.78.71.63 4-.71 7.38.39 10.2 3.3.94 1.02 1.88 2.2 2.75 3.3.39.78.78 1.57 1.18 2.35v1.1c-.31 2.04-.63 4.16-1.02 6.2Zm-4.87-8.32v-.55c-.08-1.1-.55-2.12-1.33-2.9-.86-.86-1.81-1.33-2.98-1.33-.16 0-.31 0-.47.16-1.18.39-2.28.94-3.38 1.49-.71.39-1.1.86-1.41 1.57-.78 1.96-1.41 4-1.8 6.12-1.26 5.96-3.61 11.46-6.98 16.56-1.18 1.88-2.43 3.69-3.85 5.42-.31.47-.24.94.16 1.41 1.02.71 1.8 1.49 2.51 2.43 1.96 2.67 4.47 4 7.77 4 .71 0 1.33-.16 1.8-.63 1.49-1.33 2.75-2.75 3.77-4.47 1.02-1.8 1.8-3.77 2.35-5.89.55-2.04.94-4.08 1.26-6.2.55-2.75.94-5.42 1.26-8.08.47-3.06 1.02-6.12 1.57-9.1h-.24Z" style="fill:url(#h)"/><path d="M241.74 328.19c-1.1-.39-2.2-.39-3.38 0-2.82.94-5.65 1.88-8.48 2.83-.39.31-.71.63-.94 1.1-.94 2.2-1.88 4.39-2.83 6.59a72.16 72.16 0 0 1-3.14 6.67c-1.26 2.12-2.59 4.08-4 6.04-3.37 4.63-7.22 8.71-11.69 12.16-1.88 1.49-3.84 2.9-5.89 4.16-.08.08-.16.16-.31.24 0-.24 0-.31.16-.39.55-.94 1.26-1.88 1.96-2.75 2.2-2.98 4.47-6.04 6.75-9.1a99.543 99.543 0 0 0 9.65-19.38c0-.16.08-.39.16-.63.16-.47 0-.63-.47-.47-1.02.39-2.04.71-3.06.94-3.22.78-6.44.55-9.5-.78l-3.3-1.41c-.31-.16-.63-.39-.79-.71.24-.31.55-.55.94-.71 3.85-.94 7.69-1.88 11.46-2.75l7.53-2.35c.39-.08.63-.31.71-.63l2.98-12.64c.16-.63-.08-1.02-.78-1.1-.55-.24-1.1-.63-1.57-1.02.39-.63.78-1.18 1.33-1.57 3.69-2.2 6.83-1.57 9.42 1.96.31.47.47.94.39 1.57-.39 1.41-.86 2.9-1.33 4.24-.63 1.73-1.26 3.53-1.96 5.26-.08.16-.08.39-.16.63.24.08.55.08.86-.08 2.28-.86 4.63-1.26 7.06-1.02 2.04.16 4 .71 5.73 1.73 1.8 1.02 3.38 2.35 4.71 3.85.71.63 1.33 1.33 1.88 2.04.55.71.78 1.57.78 2.59.16 2.2 0 4.4-.47 6.51-.94 4.24-2.12 8.4-3.45 12.56-1.1 2.98-2.43 5.89-3.92 8.71-1.57 2.75-3.38 5.34-5.49 7.61-2.12 1.96-4.32 3.85-6.67 5.57-.94.71-1.88.78-2.9.16-2.98-1.57-5.42-3.69-7.3-6.36-1.26-1.65-2.51-3.38-3.69-4.94l-1.88-2.67s-.08-.08-.08-.24h.39c.94.78 1.88 1.57 2.9 2.35l2.35 1.81c.78.63 1.57 1.1 2.51 1.49 1.8.55 3.77.71 5.73.47 1.41-.16 2.67-.71 3.77-1.49 1.02-.78 1.96-1.8 2.83-2.9 3.92-4.94 6.51-10.6 7.61-16.8.78-3.53 1.33-6.67 1.73-9.42.47-2.75-.16-4.71-1.73-5.89-1.02-.71-2.04-1.26-3.14-1.65Z" style="fill:url(#i)"/><path d="M24.72 413.59h-7.88v-1.01c.92 0 1.6-.09 2.04-.25s.75-.53.91-1.09c.16-.56.24-1.41.24-2.55v-13.04c0-.85-.08-1.49-.24-1.93-.16-.44-.45-.74-.89-.91-.44-.17-1.1-.25-2-.25v-1.01h6.84l7.07 16.86h.13l7.04-16.86h6.37v1.01c-.78 0-1.38.08-1.81.25-.42.17-.72.47-.87.91-.16.44-.23 1.07-.23 1.89v13.98c0 .8.08 1.42.23 1.86.16.44.45.73.87.89.43.16 1.04.24 1.85.24v1.01h-8.92v-1.01c.87 0 1.52-.08 1.94-.24.42-.16.7-.45.84-.89.13-.44.2-1.06.2-1.86v-14.45h-.13l-7.81 18.44h-.8l-7.91-18.41h-.13v13.51c0 1.14.08 1.99.24 2.55.16.56.45.92.89 1.09.44.17 1.08.25 1.93.25v1.01Z" style="fill:url(#j)"/><path d="M58.28 413.99c-2.21 0-4.12-.46-5.72-1.38-1.6-.92-2.83-2.23-3.69-3.94-.86-1.71-1.29-3.75-1.29-6.12s.43-4.27 1.29-5.99c.86-1.71 2.09-3.04 3.69-3.99 1.6-.95 3.5-1.42 5.72-1.42s4.15.46 5.73 1.39c1.59.93 2.81 2.22 3.66 3.89.85 1.67 1.27 3.6 1.27 5.82 0 2.35-.43 4.4-1.29 6.15-.86 1.75-2.09 3.12-3.67 4.11-1.59.98-3.49 1.48-5.7 1.48Zm.03-1.41c2.39 0 4.17-.86 5.35-2.58 1.17-1.72 1.76-4.27 1.76-7.65 0-2.01-.3-3.75-.91-5.21-.6-1.47-1.45-2.59-2.53-3.39-1.08-.79-2.35-1.19-3.8-1.19-2.17 0-3.89.87-5.16 2.6s-1.91 4.13-1.91 7.19.6 5.64 1.79 7.48c1.2 1.83 3 2.75 5.42 2.75Z" style="fill:url(#k)"/><path d="M85.61 413.59h-9.72v-1.01c.94 0 1.64-.07 2.11-.22.47-.14.78-.46.94-.94.16-.48.24-1.22.24-2.23v-16.13h-2.15c-1.23 0-2.15.12-2.77.37-.61.25-1.06.69-1.32 1.34-.27.65-.53 1.59-.77 2.82h-1.04l.37-6.03h18.54l.27 6.03h-1.04c-.25-1.23-.5-2.17-.77-2.82-.27-.65-.7-1.1-1.31-1.34-.6-.25-1.53-.37-2.78-.37H82.3v16.13c0 1.01.08 1.75.24 2.23.16.48.47.79.94.94.47.15 1.19.22 2.15.22v1.01Z" style="fill:url(#l)"/><path d="M101.63 413.59h-9.66v-1.01c1.01 0 1.74-.09 2.21-.25.47-.17.77-.49.91-.97.13-.48.2-1.2.2-2.16v-13.21c0-.87-.06-1.56-.17-2.06-.11-.5-.4-.85-.85-1.06s-1.22-.3-2.3-.3v-1.01h9.66v1.01c-1.05 0-1.81.1-2.28.3-.47.2-.75.55-.86 1.06-.1.5-.15 1.19-.15 2.06v13.21c0 .96.07 1.68.2 2.16.13.48.44.81.91.97.47.17 1.2.25 2.18.25v1.01Z" style="fill:url(#m)"/><path d="M115.01 413.75h-1.34l-7.68-18.14c-.31-.76-.63-1.36-.94-1.79-.31-.44-.67-.75-1.07-.96s-.91-.3-1.51-.3v-1.01h8.99v1.01c-.29 0-.62.02-.97.07-.36.05-.66.15-.92.32s-.39.46-.39.89c0 .45.19 1.13.57 2.05l4.06 9.96 1.31 3.52h.17l1.17-3.35 4.22-10.66c.11-.25.2-.51.27-.79s.1-.56.1-.86c0-.45-.18-.75-.54-.91-.36-.16-.93-.23-1.71-.23v-1.01h7.04v1.01c-.47 0-.87.05-1.19.15-.32.1-.62.3-.87.6-.26.3-.53.74-.82 1.32-.29.58-.64 1.34-1.04 2.28l-6.91 16.83Z" style="fill:url(#n)"/><path d="M144.72 413.59h-17.9v-1.01c.92 0 1.6-.06 2.06-.18.46-.12.77-.4.94-.82.17-.42.25-1.07.25-1.94v-13.98c0-.85-.08-1.5-.25-1.94-.17-.45-.48-.75-.94-.91-.46-.16-1.15-.23-2.06-.23v-1.01h17.6l.2 5.5h-1.07c-.16-1.12-.4-1.96-.72-2.53-.32-.57-.85-.96-1.58-1.16-.73-.2-1.78-.3-3.17-.3h-4.93v8.52h3.92c1.03 0 1.81-.09 2.35-.27.54-.18.91-.51 1.11-1.01s.3-1.19.3-2.08h1.07v7.78h-1.07c0-.92-.1-1.6-.3-2.05-.2-.45-.57-.74-1.11-.87s-1.32-.2-2.35-.2h-3.92v9.22h4.33c1.3 0 2.34-.06 3.14-.18.79-.12 1.42-.35 1.88-.69.46-.33.84-.82 1.14-1.44.3-.63.62-1.44.96-2.45h1.07l-.94 6.24Z" style="fill:url(#o)"/><path d="M165.4 413.59h-9.46v-1.01c.87 0 1.52-.08 1.94-.24.42-.16.7-.46.84-.92s.2-1.16.2-2.1V394.9c0-.98-.21-1.62-.62-1.91-.41-.29-1.16-.44-2.23-.44v-1.01h8.35c1.07 0 2.11.08 3.1.25 1 .17 1.88.45 2.65.85.77.4 1.39.97 1.85 1.69.46.73.69 1.65.69 2.77 0 1.3-.25 2.39-.74 3.27-.49.88-1.16 1.59-2 2.13-.84.54-1.78.92-2.83 1.14-1.05.22-2.12.34-3.22.34-.34 0-.69-.02-1.07-.07s-.66-.11-.84-.2v5.73c0 .92.09 1.6.28 2.04.19.45.53.74 1.02.87s1.18.2 2.08.2v1.01Zm-1.58-10.96c1.21 0 2.22-.15 3.05-.45.83-.3 1.45-.82 1.88-1.54.42-.73.64-1.74.64-3.03 0-1.52-.44-2.69-1.32-3.5-.88-.82-2.23-1.22-4.04-1.22-.34 0-.66.01-.99.03s-.67.06-1.02.1v9.49c.18.02.44.05.79.08.35.03.69.05 1.02.05Z" style="fill:url(#p)"/><path d="M185.92 413.99c-2.21 0-4.12-.46-5.72-1.38-1.6-.92-2.83-2.23-3.69-3.94-.86-1.71-1.29-3.75-1.29-6.12s.43-4.27 1.29-5.99c.86-1.71 2.09-3.04 3.69-3.99 1.6-.95 3.5-1.42 5.72-1.42s4.15.46 5.73 1.39c1.59.93 2.81 2.22 3.66 3.89.85 1.67 1.27 3.6 1.27 5.82 0 2.35-.43 4.4-1.29 6.15-.86 1.75-2.09 3.12-3.67 4.11-1.59.98-3.49 1.48-5.7 1.48Zm.03-1.41c2.39 0 4.17-.86 5.35-2.58 1.17-1.72 1.76-4.27 1.76-7.65 0-2.01-.3-3.75-.91-5.21-.6-1.47-1.45-2.59-2.53-3.39-1.08-.79-2.35-1.19-3.8-1.19-2.17 0-3.89.87-5.16 2.6s-1.91 4.13-1.91 7.19.6 5.64 1.79 7.48c1.2 1.83 3 2.75 5.42 2.75Z" style="fill:url(#q)"/><path d="M209.42 413.79h-.84l-6.97-17.57c-.51-1.41-1.04-2.36-1.57-2.87-.54-.5-1.24-.76-2.11-.79v-1.01h8.65v1.01c-.85 0-1.43.09-1.74.28s-.47.46-.47.82c0 .42.16 1.04.47 1.84l3.89 9.79 1.04 2.82h.17l3.96-10.23 1.57 2.58h-.97l-5.06 13.31Zm11.13 0h-.91l-5.23-13.81-.54-1.14-1.11-3.08c-.36-.98-.68-1.7-.97-2.15s-.63-.73-1.01-.85-.89-.18-1.54-.18v-1.01h8.75v1.01c-1.7 0-2.55.38-2.55 1.14 0 .27.07.58.2.94s.26.69.37 1.01l3.49 9.05 1.11 3.32h.17l3.82-11.13c.11-.36.21-.7.3-1.04.09-.34.16-.66.22-.99.06-.32.08-.62.08-.89 0-.51-.18-.88-.54-1.09-.36-.21-.93-.32-1.71-.32v-1.01h6.91v1.01c-.78.02-1.38.2-1.78.54-.4.34-.76.93-1.07 1.78l-6.47 18.91Z" style="fill:url(#r)"/><path d="M249.02 413.59h-17.9v-1.01c.92 0 1.6-.06 2.06-.18.46-.12.77-.4.94-.82.17-.42.25-1.07.25-1.94v-13.98c0-.85-.08-1.5-.25-1.94-.17-.45-.48-.75-.94-.91-.46-.16-1.15-.23-2.06-.23v-1.01h17.6l.2 5.5h-1.07c-.16-1.12-.4-1.96-.72-2.53-.32-.57-.85-.96-1.58-1.16-.73-.2-1.78-.3-3.17-.3h-4.93v8.52h3.92c1.03 0 1.81-.09 2.35-.27.54-.18.91-.51 1.11-1.01.2-.49.3-1.19.3-2.08h1.07v7.78h-1.07c0-.92-.1-1.6-.3-2.05-.2-.45-.57-.74-1.11-.87s-1.32-.2-2.35-.2h-3.92v9.22h4.33c1.3 0 2.34-.06 3.14-.18s1.42-.35 1.88-.69c.46-.33.84-.82 1.14-1.44.3-.63.62-1.44.96-2.45h1.07l-.94 6.24Z" style="fill:url(#s)"/><path d="M261.76 413.59h-9.42v-1.01c.85 0 1.49-.07 1.91-.2.42-.13.71-.42.85-.87.15-.45.22-1.14.22-2.08v-14.38c0-.63-.06-1.12-.18-1.48-.12-.36-.4-.61-.82-.77-.43-.16-1.09-.23-1.98-.23v-1.01h8.25c1.68 0 3.17.16 4.48.49 1.31.32 2.33.88 3.07 1.68.74.79 1.11 1.91 1.11 3.33 0 1.25-.28 2.27-.85 3.05a6.03 6.03 0 0 1-2.15 1.83c-.86.44-1.75.77-2.67.99v.13c.38.22.81.61 1.29 1.16.48.55 1.1 1.35 1.86 2.41s1.75 2.48 2.98 4.24c.54.74 1.06 1.21 1.56 1.41.5.2 1.13.3 1.89.3v1.01h-5.53c-.92-1.38-1.68-2.54-2.3-3.47-.61-.93-1.13-1.71-1.56-2.35-.42-.64-.8-1.2-1.14-1.69-.34-.49-.67-.98-1.01-1.48-.33-.51-.64-.83-.92-.94s-.72-.17-1.32-.17h-.94v5.93c0 .92.08 1.6.23 2.06.16.46.47.75.94.89.47.13 1.18.2 2.14.2v1.01Zm-3.32-11.4 1.27.03c1.23-.07 2.3-.27 3.22-.6.92-.34 1.63-.86 2.15-1.58s.77-1.66.77-2.85c0-1.34-.41-2.4-1.24-3.17-.83-.77-2.15-1.16-3.96-1.16-.36 0-.73 0-1.11.02-.38.01-.75.04-1.11.08v9.22Z" style="fill:url(#t)"/></svg>